<?xml version="1.0" encoding="UTF-8" standalone="no"?>
<svg
   width="64"
   height="64"
   version="1.1"
   viewBox="0 0 16.933 16.933"
   id="svg46"
   sodipodi:docname="preferences-desktop-keyboard-shortcuts.svg"
   inkscape:version="1.1.2 (0a00cf5339, 2022-02-04)"
   xmlns:inkscape="http://www.inkscape.org/namespaces/inkscape"
   xmlns:sodipodi="http://sodipodi.sourceforge.net/DTD/sodipodi-0.dtd"
   xmlns="http://www.w3.org/2000/svg"
   xmlns:svg="http://www.w3.org/2000/svg">
  <defs
     id="defs50" />
  <sodipodi:namedview
     id="namedview48"
     pagecolor="#ffffff"
     bordercolor="#666666"
     borderopacity="1.0"
     inkscape:pageshadow="2"
     inkscape:pageopacity="0.0"
     inkscape:pagecheckerboard="0"
     showgrid="false"
     inkscape:zoom="10.234375"
     inkscape:cx="32"
     inkscape:cy="32"
     inkscape:window-width="1600"
     inkscape:window-height="835"
     inkscape:window-x="0"
     inkscape:window-y="0"
     inkscape:window-maximized="1"
     inkscape:current-layer="svg46" />
  <rect
     x="1.587"
     y="4.2299876"
     width="13.758"
     height="8.467"
     ry="0.52899998"
     fill="#666666"
     stroke="#242424"
     stroke-width="0.52916"
     paint-order="markers stroke fill"
     id="rect2" />
  <rect
     x="1.587"
     y="4.2299876"
     width="13.758"
     height="8.467"
     ry="0.52899998"
     fill="#666666"
     paint-order="markers stroke fill"
     id="rect4" />
  <rect
     x="2.9100001"
     y="5.2899852"
     width="1.587"
     height="1.323"
     ry="0.26499999"
     fill="#ffffff"
     paint-order="markers stroke fill"
     id="rect6" />
  <g
     fill="#ffffff"
     id="g18"
     transform="translate(0,-280.07)">
    <rect
       x="5.2919998"
       y="285.35999"
       width="1.587"
       height="1.323"
       ry="0.26499999"
       paint-order="markers stroke fill"
       id="rect10" />
    <rect
       x="7.6729999"
       y="285.35999"
       width="1.587"
       height="1.323"
       ry="0.26499999"
       paint-order="markers stroke fill"
       id="rect12" />
    <rect
       x="10.319"
       y="285.35999"
       width="1.587"
       height="1.323"
       ry="0.26499999"
       paint-order="markers stroke fill"
       id="rect14" />
    <rect
       x="12.7"
       y="285.35999"
       width="1.587"
       height="1.323"
       ry="0.26499999"
       paint-order="markers stroke fill"
       id="rect16" />
  </g>
  <rect
     x="2.9100001"
     y="7.6699901"
     width="1.587"
     height="1.323"
     ry="0.26499999"
     fill="#ffffff"
     paint-order="markers stroke fill"
     id="rect22" />
  <g
     fill="#ffffff"
     id="g36"
     transform="translate(0,-280.07)">
    <rect
       x="5.2919998"
       y="287.73999"
       width="1.587"
       height="1.323"
       ry="0.26499999"
       paint-order="markers stroke fill"
       id="rect26" />
    <rect
       x="7.6729999"
       y="287.73999"
       width="1.587"
       height="1.323"
       ry="0.26499999"
       paint-order="markers stroke fill"
       id="rect28" />
    <rect
       x="10.319"
       y="287.73999"
       width="1.587"
       height="1.323"
       ry="0.26499999"
       paint-order="markers stroke fill"
       id="rect30" />
    <rect
       x="12.965"
       y="287.73999"
       width="1.587"
       height="1.323"
       ry="0.26499999"
       paint-order="markers stroke fill"
       id="rect32" />
    <rect
       x="5.2919998"
       y="290.10999"
       width="6.3499999"
       height="1.323"
       ry="0.271"
       paint-order="markers stroke fill"
       id="rect34" />
  </g>
  <circle
     cx="13.229"
     cy="10.579994"
     r="3.175"
     fill="#999999"
     stroke="#000000"
     stroke-opacity="0.58824"
     stroke-width="0.52916"
     id="circle38" />
  <circle
     cx="13.229"
     cy="10.579994"
     r="3.175"
     fill="#999999"
     id="circle40" />
  <path
     d="M 12.753,8.675 12.711,9.177 A 1.497,1.497 0 0 0 12.273,9.43 l -0.456,-0.215 -0.476,0.825 0.414,0.287 a 1.497,1.497 0 0 0 -0.023,0.253 1.497,1.497 0 0 0 0.022,0.254 l -0.413,0.286 0.476,0.825 0.455,-0.214 a 1.497,1.497 0 0 0 0.439,0.251 l 0.042,0.503 h 0.952 l 0.042,-0.502 a 1.497,1.497 0 0 0 0.438,-0.253 l 0.456,0.215 0.476,-0.825 -0.414,-0.288 A 1.497,1.497 0 0 0 14.726,10.58 1.497,1.497 0 0 0 14.704,10.326 L 15.117,10.04 14.641,9.215 14.186,9.429 A 1.497,1.497 0 0 0 13.747,9.178 L 13.705,8.675 Z m 0.476,1.27 a 0.635,0.635 0 0 1 0.635,0.635 0.635,0.635 0 0 1 -0.635,0.635 0.635,0.635 0 0 1 -0.635,-0.635 0.635,0.635 0 0 1 0.635,-0.635 z"
     fill="#ffffff"
     id="path42" />
</svg>
