<?xml version="1.0" encoding="UTF-8" standalone="no"?>
<svg
   width="64"
   height="64"
   version="1.1"
   id="svg10"
   sodipodi:docname="gtkusersetup.svg"
   inkscape:version="1.1.2 (0a00cf5339, 2022-02-04)"
   xmlns:inkscape="http://www.inkscape.org/namespaces/inkscape"
   xmlns:sodipodi="http://sodipodi.sourceforge.net/DTD/sodipodi-0.dtd"
   xmlns="http://www.w3.org/2000/svg"
   xmlns:svg="http://www.w3.org/2000/svg">
  <defs
     id="defs14" />
  <sodipodi:namedview
     id="namedview12"
     pagecolor="#ffffff"
     bordercolor="#666666"
     borderopacity="1.0"
     inkscape:pageshadow="2"
     inkscape:pageopacity="0.0"
     inkscape:pagecheckerboard="0"
     showgrid="false"
     inkscape:zoom="7.9439027"
     inkscape:cx="32.225974"
     inkscape:cy="32.225974"
     inkscape:window-width="1920"
     inkscape:window-height="1018"
     inkscape:window-x="0"
     inkscape:window-y="0"
     inkscape:window-maximized="1"
     inkscape:current-layer="g8" />
  <g
     transform="matrix(1.35 0 0 1.35 -.4 -22)"
     stroke-width=".74074"
     id="g8">
    <rect
       x="4"
       y="20"
       width="40"
       height="40"
       rx="20"
       fill="#e15452"
       stroke="#ae3a3a"
       stroke-width="1.4815"
       id="rect2" />
    <rect
       x="4"
       y="20"
       width="40"
       height="40"
       rx="20"
       fill="#e15452"
       stroke-width=".74074"
       id="rect4" />
    <g
       stroke-width="0.265"
       id="g6"
       transform="matrix(2.4126222,0,0,2.4126222,3.5735341,19.253862)">
      <path
         d="m 6.892,7.011 c 0.161,0.768 0.25,1.35 0.12,2.117 -1.018,0.852 -3.623,1.235 -3.62,2.117 l -0.35,2.646 c 0,0.876 2.43,1.587 5.425,1.587 2.995,0 5.424,-0.71 5.424,-1.587 l -0.35,-2.646 C 13.536,10.49 10.916,10.01 9.911,9.128 9.824,8.415 9.893,7.724 10.041,7.011 Z"
         fill="#e6e6e6"
         stroke="#b4b4b4"
         id="path2" />
      <path
         d="m 8.467,1.72 c -1.535,0 -2.778,1.099 -2.778,2.454 0.012,0.502 0.057,1.098 0.37,2.454 0.185,0.526 1.837,1.929 1.852,2.104 0.36,0.175 0.926,0.175 1.297,0 0,-0.175 1.481,-1.578 1.666,-2.104 0.353,-1.41 0.352,-1.928 0.37,-2.454 0,-1.355 -1.243,-2.454 -2.777,-2.454 z"
         fill="#f2f2f2"
         stroke="#c8c8c8"
         id="path4" />
    </g>
  </g>
</svg>
