<?xml version="1.0" encoding="UTF-8" standalone="no"?>
<svg
   width="64"
   height="64"
   viewBox="0 0 16.933 16.933"
   version="1.1"
   id="svg16"
   sodipodi:docname="gtkreposetup.svg"
   inkscape:version="1.1.2 (0a00cf5339, 2022-02-04)"
   xmlns:inkscape="http://www.inkscape.org/namespaces/inkscape"
   xmlns:sodipodi="http://sodipodi.sourceforge.net/DTD/sodipodi-0.dtd"
   xmlns="http://www.w3.org/2000/svg"
   xmlns:svg="http://www.w3.org/2000/svg">
  <defs
     id="defs20" />
  <sodipodi:namedview
     id="namedview18"
     pagecolor="#ffffff"
     bordercolor="#666666"
     borderopacity="1.0"
     inkscape:pageshadow="2"
     inkscape:pageopacity="0.0"
     inkscape:pagecheckerboard="0"
     showgrid="false"
     inkscape:zoom="11.234375"
     inkscape:cx="31.955494"
     inkscape:cy="31.955494"
     inkscape:window-width="1920"
     inkscape:window-height="1020"
     inkscape:window-x="0"
     inkscape:window-y="0"
     inkscape:window-maximized="1"
     inkscape:current-layer="g10" />
  <g
     transform="translate(0 -280.067)"
     paint-order="stroke markers fill"
     id="g14">
    <rect
       ry=".571"
       y="281.39"
       x="1.852"
       height="14.287"
       width="13.229"
       opacity=".75"
       fill="#549bff"
       stroke="#0b48a9"
       stroke-width=".529"
       id="rect2" />
    <g
       transform="matrix(1.04167 0 0 1.08 -.353 -23.082)"
       stroke-width=".961"
       id="g10">
      <rect
         ry=".529"
         y="281.919"
         x="2.117"
         height="13.229"
         width="12.7"
         fill="#549bff"
         id="rect4" />
      <path
         d="M2.646 281.919a.528.528 0 0 0-.53.529v5.045a9.26 9.26 0 0 0 8.467 5.538 9.26 9.26 0 0 0 4.234-1.027v-9.556a.528.528 0 0 0-.53-.53z"
         opacity=".1"
         fill="#00f"
         id="path6" />
      <path
         d="M2.646 281.919a.528.528 0 0 0-.53.529v12.17c0 .294.237.53.53.53h5.909a10.583 10.583 0 0 0 6.262-5.472v-7.228a.528.528 0 0 0-.53-.53z"
         opacity=".1"
         fill="#00f"
         id="path8" />
    </g>
    <path
       d="M5.292 284.035a3.175 3.175 0 0 0 3.175 3.175 3.175 3.175 0 0 0 3.175-3.175h-.794a2.381 2.381 0 0 1-2.381 2.382 2.381 2.381 0 0 1-2.382-2.382h-.793z"
       fill="#fff"
       id="path12" />
  </g>
  <circle
     cx="13.193424"
     cy="12.755314"
     r="3.175"
     fill="#999999"
     stroke="#000000"
     stroke-opacity="0.58824"
     stroke-width="0.52916"
     id="circle38" />
  <circle
     cx="13.193424"
     cy="12.755314"
     r="3.175"
     fill="#999999"
     id="circle40" />
  <path
     d="m 12.717424,10.85032 -0.042,0.502 a 1.497,1.497 0 0 0 -0.438,0.253 l -0.456,-0.215 -0.476,0.825 0.414,0.287 a 1.497,1.497 0 0 0 -0.023,0.253 1.497,1.497 0 0 0 0.022,0.254 l -0.413,0.286 0.476,0.825 0.455,-0.214 a 1.497,1.497 0 0 0 0.439,0.251 l 0.042,0.503 h 0.952 l 0.042,-0.502 a 1.497,1.497 0 0 0 0.438,-0.253 l 0.456,0.215 0.476,-0.825 -0.414,-0.288 a 1.497,1.497 0 0 0 0.023,-0.252 1.497,1.497 0 0 0 -0.022,-0.254 l 0.413,-0.286 -0.476,-0.825 -0.455,0.214 a 1.497,1.497 0 0 0 -0.439,-0.251 l -0.042,-0.503 z m 0.476,1.27 a 0.635,0.635 0 0 1 0.635,0.635 0.635,0.635 0 0 1 -0.635,0.635 0.635,0.635 0 0 1 -0.635,-0.635 0.635,0.635 0 0 1 0.635,-0.635 z"
     fill="#ffffff"
     id="path42" />
</svg>
