<?xml version="1.0" encoding="UTF-8" standalone="no"?>
<svg
   width="64"
   height="64"
   version="1.1"
   id="svg22"
   sodipodi:docname="kdevelop_alternate.svg"
   inkscape:version="1.1.2 (0a00cf5339, 2022-02-04)"
   xmlns:inkscape="http://www.inkscape.org/namespaces/inkscape"
   xmlns:sodipodi="http://sodipodi.sourceforge.net/DTD/sodipodi-0.dtd"
   xmlns="http://www.w3.org/2000/svg"
   xmlns:svg="http://www.w3.org/2000/svg">
  <defs
     id="defs26" />
  <sodipodi:namedview
     id="namedview24"
     pagecolor="#ffffff"
     bordercolor="#666666"
     borderopacity="1.0"
     inkscape:pageshadow="2"
     inkscape:pageopacity="0.0"
     inkscape:pagecheckerboard="0"
     showgrid="false"
     inkscape:zoom="10.234375"
     inkscape:cx="61.508397"
     inkscape:cy="32"
     inkscape:window-width="1600"
     inkscape:window-height="835"
     inkscape:window-x="0"
     inkscape:window-y="0"
     inkscape:window-maximized="1"
     inkscape:current-layer="g14" />
  <g
     transform="matrix(1.3505,0,0,1.3505,-0.41263,-0.413)"
     color="#000000"
     stroke-linejoin="round"
     stroke-width="2.2214"
     id="g8">
    <path
       d="m 21.952,43.884 a 20,20 0 0 0 4.0971,0.0059 l 0.475,-3.1 a 17,17 0 0 0 3.6873,-0.98547 l 1.956,2.441 a 20,20 0 0 0 3.549,-2.0538 l -1.135,-2.911 a 17,17 0 0 0 2.7098,-2.6952 l 2.893,1.127 a 20,20 0 0 0 2.0501,-3.5534 l -2.422,-1.941 a 17,17 0 0 0 0.60859,-1.8185 17,17 0 0 0 0.36937,-1.8765 l 3.094,-0.475 a 20,20 0 0 0 0.0059,-4.0971 l -3.1,-0.475 a 17,17 0 0 0 -0.98547,-3.6873 l 2.441,-1.956 a 20,20 0 0 0 -2.0538,-3.549 l -2.911,1.135 a 17,17 0 0 0 -2.6949,-2.7096 l 1.1271,-2.8928 a 20,20 0 0 0 -3.5535,-2.0501 l -1.9395,2.4221 a 17,17 0 0 0 -1.8201,-0.60874 17,17 0 0 0 -1.8765,-0.36937 l -0.47338,-3.0939 a 20,20 0 0 0 -4.0971,-0.00591 l -0.47694,3.0999 a 17,17 0 0 0 -3.687,0.98574 l -1.956,-2.4407 a 20,20 0 0 0 -3.549,2.0538 l 1.135,2.911 a 17,17 0 0 0 -2.7098,2.6952 l -2.8932,-1.128 a 20,20 0 0 0 -2.0501,3.5534 l 2.422,1.941 a 17,17 0 0 0 -0.60859,1.8185 17,17 0 0 0 -0.36937,1.8765 l -3.094,0.475 a 20,20 0 0 0 -0.00591,4.0971 l 3.1,0.475 a 17,17 0 0 0 0.98548,3.6873 l -2.441,1.956 a 20,20 0 0 0 2.0538,3.549 l 2.911,-1.135 a 17,17 0 0 0 2.6952,2.7098 l -1.127,2.893 a 20,20 0 0 0 3.5534,2.0501 l 1.941,-2.422 a 17,17 0 0 0 1.8185,0.60859 17,17 0 0 0 1.8765,0.36937 z m -1.5754,-6.3608 a 14,14 0 0 1 -9.8995,-17.146 14,14 0 0 1 17.146,-9.8995 14,14 0 0 1 9.8995,17.146 14,14 0 0 1 -17.146,9.8995"
       fill="#d9dddd"
       opacity="0.35"
       stroke="#000000"
       stroke-width="1.4809"
       id="path2" />
    <circle
       transform="rotate(15)"
       cx="29.393999"
       cy="16.971001"
       r="15"
       fill="#c0c7c7"
       stroke-linecap="round"
       id="circle4" />
    <path
       d="m 21.952,43.884 a 20,20 0 0 0 4.0971,0.0059 l 0.475,-3.1 a 17,17 0 0 0 3.6873,-0.98547 l 1.956,2.441 a 20,20 0 0 0 3.549,-2.0538 l -1.135,-2.911 a 17,17 0 0 0 2.7098,-2.6952 l 2.893,1.127 a 20,20 0 0 0 2.0501,-3.5534 l -2.422,-1.941 a 17,17 0 0 0 0.60859,-1.8185 17,17 0 0 0 0.36937,-1.8765 l 3.094,-0.475 a 20,20 0 0 0 0.0059,-4.0971 l -3.1,-0.475 a 17,17 0 0 0 -0.98547,-3.6873 l 2.441,-1.956 a 20,20 0 0 0 -2.0538,-3.549 l -2.911,1.135 a 17,17 0 0 0 -2.6949,-2.7096 l 1.1271,-2.8928 a 20,20 0 0 0 -3.5535,-2.0501 l -1.9395,2.4221 a 17,17 0 0 0 -1.8201,-0.60874 17,17 0 0 0 -1.8765,-0.36937 l -0.47338,-3.0939 a 20,20 0 0 0 -4.0971,-0.00591 l -0.47694,3.0999 a 17,17 0 0 0 -3.687,0.98574 l -1.956,-2.4407 a 20,20 0 0 0 -3.549,2.0538 l 1.135,2.911 a 17,17 0 0 0 -2.7098,2.6952 l -2.8932,-1.128 a 20,20 0 0 0 -2.0501,3.5534 l 2.422,1.941 a 17,17 0 0 0 -0.60859,1.8185 17,17 0 0 0 -0.36937,1.8765 l -3.094,0.475 a 20,20 0 0 0 -0.00591,4.0971 l 3.1,0.475 a 17,17 0 0 0 0.98548,3.6873 l -2.441,1.956 a 20,20 0 0 0 2.0538,3.549 l 2.911,-1.135 a 17,17 0 0 0 2.6952,2.7098 l -1.127,2.893 a 20,20 0 0 0 3.5534,2.0501 l 1.941,-2.422 a 17,17 0 0 0 1.8185,0.60859 17,17 0 0 0 1.8765,0.36937 z m -1.5754,-6.3608 a 14,14 0 0 1 -9.8995,-17.146 14,14 0 0 1 17.146,-9.8995 14,14 0 0 1 9.8995,17.146 14,14 0 0 1 -17.146,9.8995"
       fill="#d9dddd"
       id="path6" />
  </g>
  <g
     stroke-linecap="round"
     stroke-width="2.2214"
     id="g14"
     transform="matrix(1.3505,0,0,1.3505,-0.41263,-0.413)"
     style="color:#000000;stroke-linejoin:round">
    <circle
       transform="matrix(-0.96593,-0.25882,0.25882,-0.96593,0,0)"
       cx="-29.393999"
       cy="-16.971001"
       r="13"
       fill="#377b52"
       id="circle10" />
    <circle
       transform="matrix(-0.96593,-0.25882,0.25882,-0.96593,0,0)"
       cx="-29.393999"
       cy="-16.971001"
       r="12"
       fill="#4abd7e"
       id="circle12"
       style="fill:#55d400;fill-opacity:1" />
  </g>
  <path
     d="m 19.84487,37.401 5.402,5.402 2.701,-8.103 z"
     fill="#ffffff"
     fill-rule="evenodd"
     stroke-width="0.999978"
     id="path18" />
</svg>
