<?xml version="1.0" encoding="UTF-8" standalone="no"?>
<svg
   width="64"
   height="64"
   viewBox="0 0 16.933 16.933"
   version="1.1"
   id="svg16"
   sodipodi:docname="preferences-desktop-locale.svg"
   inkscape:version="1.1.2 (0a00cf5339, 2022-02-04)"
   xmlns:inkscape="http://www.inkscape.org/namespaces/inkscape"
   xmlns:sodipodi="http://sodipodi.sourceforge.net/DTD/sodipodi-0.dtd"
   xmlns="http://www.w3.org/2000/svg"
   xmlns:svg="http://www.w3.org/2000/svg">
  <defs
     id="defs20" />
  <sodipodi:namedview
     id="namedview18"
     pagecolor="#ffffff"
     bordercolor="#666666"
     borderopacity="1.0"
     inkscape:pageshadow="2"
     inkscape:pageopacity="0.0"
     inkscape:pagecheckerboard="0"
     showgrid="false"
     inkscape:zoom="11.234375"
     inkscape:cx="31.955494"
     inkscape:cy="31.955494"
     inkscape:window-width="1920"
     inkscape:window-height="1020"
     inkscape:window-x="0"
     inkscape:window-y="0"
     inkscape:window-maximized="1"
     inkscape:current-layer="g14" />
  <g
     transform="translate(0,-280.067)"
     id="g14">
    <rect
       rx="0.52899998"
       ry="0.52899998"
       y="285.09399"
       x="1.852"
       height="9.5249996"
       width="9.5249996"
       fill="#ffffff"
       stroke="#000000"
       stroke-width="0.529"
       stroke-opacity="0.137"
       paint-order="stroke markers fill"
       id="rect2" />
    <rect
       width="9.5249996"
       height="9.5249996"
       x="1.852"
       y="285.09399"
       ry="0.52899998"
       rx="0.52899998"
       fill="#ffffff"
       paint-order="stroke markers fill"
       id="rect4" />
    <path
       d="m 4.47,286.653 q 0.474,0.557 0.78,1.17 l -0.53,0.306 q -0.278,-0.612 -0.751,-1.17 z m -1.058,2.061 h 1.504 v 3.231 l 0.585,-0.64 0.362,0.334 q -0.39,0.529 -1.059,1.058 l -0.417,-0.362 v -3.12 H 3.412 Z m 2.59,-0.529 H 6.893 L 7.06,287.433 H 5.751 v -0.501 h 3.927 v 0.501 h -2.06 l -0.168,0.752 h 1.7 v 1.448 h 0.668 v 0.502 H 5.64 v -0.502 h 0.919 l 0.195,-0.946 H 6.002 Z m 1.114,1.448 h 1.476 v -0.946 H 7.311 Z m 2.367,1.003 v 2.423 H 8.926 v -0.362 H 6.615 v 0.362 H 6.058 v -2.423 z m -2.868,1.56 h 2.311 v -1.059 H 6.615 Z"
       aria-label="语"
       font-weight="400"
       font-size="7.13px"
       font-family="sans-serif"
       letter-spacing="0"
       word-spacing="0"
       fill="#cccccc"
       id="path6" />
    <rect
       rx="0.52899998"
       ry="0.52899998"
       y="281.91901"
       x="6.085"
       height="9.5249996"
       width="9.5250769"
       opacity="0.9"
       fill="#498cd8"
       stroke="#2d69af"
       stroke-width="0.529"
       paint-order="stroke markers fill"
       id="rect8"
       style="stroke:#554375;stroke-opacity:1" />
    <rect
       width="9.5249996"
       height="9.5249996"
       x="6.085"
       y="281.91901"
       ry="0.52899998"
       rx="0.52899998"
       fill="#498cd8"
       paint-order="stroke markers fill"
       id="rect10"
       style="fill:#9575cd;fill-opacity:1" />
    <path
       d="m 10.848,284.775 -0.954,2.587 h 1.911 z m -0.397,-0.693 h 0.797 l 1.981,5.198 h -0.73 l -0.474,-1.333 H 9.682 L 9.208,289.28 H 8.467 Z"
       aria-label="A"
       font-weight="400"
       font-size="7.13px"
       font-family="sans-serif"
       letter-spacing="0"
       word-spacing="0"
       fill="#ffffff"
       id="path12" />
  </g>
</svg>
