<?xml version="1.0" encoding="UTF-8" standalone="no"?>
<svg
   width="64"
   height="64"
   version="1.1"
   viewBox="0 0 16.933 16.933"
   id="svg14"
   sodipodi:docname="gtkiconrefresh.svg"
   inkscape:version="1.1.2 (0a00cf5339, 2022-02-04)"
   xmlns:inkscape="http://www.inkscape.org/namespaces/inkscape"
   xmlns:sodipodi="http://sodipodi.sourceforge.net/DTD/sodipodi-0.dtd"
   xmlns="http://www.w3.org/2000/svg"
   xmlns:svg="http://www.w3.org/2000/svg">
  <defs
     id="defs18" />
  <sodipodi:namedview
     id="namedview16"
     pagecolor="#ffffff"
     bordercolor="#666666"
     borderopacity="1.0"
     inkscape:pageshadow="2"
     inkscape:pageopacity="0.0"
     inkscape:pagecheckerboard="0"
     showgrid="false"
     inkscape:zoom="11.234375"
     inkscape:cx="31.955494"
     inkscape:cy="31.955494"
     inkscape:window-width="1920"
     inkscape:window-height="1018"
     inkscape:window-x="0"
     inkscape:window-y="0"
     inkscape:window-maximized="1"
     inkscape:current-layer="svg14" />
  <g
     transform="translate(-5.0000763e-4,-280.06649)"
     id="g8">
    <circle
       r="7.1440001"
       cy="288.53299"
       cx="8.467"
       opacity="0.9"
       fill="#71a5e8"
       stroke="#4686de"
       stroke-width="0.529"
       paint-order="stroke markers fill"
       id="circle2" />
    <circle
       cx="8.467"
       cy="288.53299"
       r="7.1440001"
       fill="#71a5e8"
       paint-order="stroke markers fill"
       id="circle4" />
  </g>
  <g
     stroke-width="0.944"
     id="g12"
     transform="matrix(1.7437991,0,0,1.7437991,-4.7999849,-8.2727565)">
    <path
       d="m 4.763,11.812 c 0,0 1.426,0.388 2.126,-0.013 C 7.59,11.399 7.765,10.723 7.515,10.16 7.265,9.597 6.902,9.522 6.389,9.535 c -0.513,0.012 -1.013,0.2 -1.114,0.7 -0.1,0.5 0.1,0.901 -0.062,1.227 -0.163,0.325 -0.45,0.35 -0.45,0.35 z"
       fill="#ff8e3d"
       id="path6" />
    <path
       d="M 6.012,10.862 C 6.945,10.927 7.482,10.207 7.31,9.884 7.138,9.561 6.888,9.518 6.536,9.525 6.183,9.533 5.839,9.64 5.77,9.927 c -0.069,0.287 -0.098,0.448 0.009,0.9 a 0.709,0.709 0 0 1 0.484,-0.32 c -0.031,0.124 -0.138,0.237 -0.25,0.355 z"
       fill="#ffd13d"
       id="path8" />
    <path
       d="M 12,5.866 8.05,10.062 C 7.869,10.256 7.594,10.294 7.457,10.157 L 6.964,9.662 C 6.828,9.525 6.864,9.256 7.058,9.074 l 4.2,-3.95 c 0.194,-0.182 0.45,-0.23 0.587,-0.092 l 0.247,0.247 c 0.137,0.137 0.09,0.393 -0.093,0.587 z"
       fill="#333333"
       paint-order="stroke markers fill"
       id="path10" />
  </g>
</svg>
