<?xml version="1.0" encoding="UTF-8" standalone="no"?>
<svg
   width="64"
   height="64"
   version="1.1"
   id="svg14"
   sodipodi:docname="gtkclocksetup.svg"
   inkscape:export-filename="/home/george/salix/xap/salixtools-gtk/git/gtkclocksetup/icons/gtkclocksetup-16.png"
   inkscape:export-xdpi="24"
   inkscape:export-ydpi="24"
   inkscape:version="1.1.2 (0a00cf5339, 2022-02-04)"
   xmlns:inkscape="http://www.inkscape.org/namespaces/inkscape"
   xmlns:sodipodi="http://sodipodi.sourceforge.net/DTD/sodipodi-0.dtd"
   xmlns="http://www.w3.org/2000/svg"
   xmlns:svg="http://www.w3.org/2000/svg">
  <defs
     id="defs18" />
  <sodipodi:namedview
     id="namedview16"
     pagecolor="#ffffff"
     bordercolor="#666666"
     borderopacity="1.0"
     inkscape:pageshadow="2"
     inkscape:pageopacity="0.0"
     inkscape:pagecheckerboard="0"
     showgrid="false"
     inkscape:zoom="11.234375"
     inkscape:cx="31.955494"
     inkscape:cy="31.955494"
     inkscape:window-width="1920"
     inkscape:window-height="1020"
     inkscape:window-x="0"
     inkscape:window-y="0"
     inkscape:window-maximized="1"
     inkscape:current-layer="svg14" />
  <path
     d="M32 4.5C16.826 4.5 4.5 16.826 4.5 32S16.826 59.5 32 59.5 59.5 47.174 59.5 32 47.174 4.5 32 4.5z"
     style="marker:none;fill:#ffdb8a;fill-opacity:1"
     color="#000"
     overflow="visible"
     fill="#f9f9f9"
     id="path2" />
  <path
     style="marker:none;stroke:#d0b271;stroke-opacity:1;opacity:1"
     d="M32 4.5C16.826 4.5 4.5 16.826 4.5 32S16.826 59.5 32 59.5 59.5 47.174 59.5 32 47.174 4.5 32 4.5z"
     color="#000"
     overflow="visible"
     opacity=".2"
     stroke="#000"
     stroke-linecap="round"
     stroke-linejoin="round"
     fill="none"
     id="path4" />
  <path
     d="M29.88 33.773L47.2 14.3"
     fill="none"
     stroke="#333"
     stroke-width=".6"
     stroke-linecap="round"
     id="path6" />
  <path
     d="M33.222 32.236L17.8 29.366"
     fill="#00f"
     stroke="#333"
     stroke-width=".6"
     stroke-linecap="round"
     id="path8" />
  <path
     d="M29.88 28.076L39.143 49.7"
     fill="none"
     stroke="#eb5c3a"
     stroke-width=".6"
     stroke-linecap="round"
     id="path10" />
  <path
     style="marker:none"
     d="M32.503 32c.003 1.336-2.009 1.336-2.006 0-.003-1.336 2.009-1.336 2.006 0z"
     color="#000"
     overflow="visible"
     fill="#ececec"
     id="path12" />
</svg>
